<?xml version="1.0" encoding="UTF-8"?>
<svg id="Layer_2" data-name="Layer 2" xmlns="http://www.w3.org/2000/svg" xmlns:xlink="http://www.w3.org/1999/xlink" viewBox="0 0 328.61 84.86">
  <defs>
    <style>
      .cls-1 {
        fill: #0487d9;
      }

      .cls-2 {
        fill: #43d993;
      }

      .cls-3 {
        fill: url(#linear-gradient);
      }

      .cls-4 {
        fill: #231f20;
      }
    </style>
    <linearGradient id="linear-gradient" x1="4.59" y1="7.89" x2="77.39" y2="80.69" gradientTransform="translate(0 85.28) scale(1 -1)" gradientUnits="userSpaceOnUse">
      <stop offset="0" stop-color="#43d993"/>
      <stop offset="1" stop-color="#0487d9"/>
    </linearGradient>
  </defs>
  <g id="Layer_2-2" data-name="Layer 2">
    <g id="Layer_1-2" data-name="Layer 1-2">
      <path class="cls-3" d="m81.98,15.66v30.39c0,8.65-7.01,15.66-15.66,15.66H15.83c-1.25,0-1.88-1.51-.99-2.39l17.87-17.87H15.66c-2.54,0-4.6,2.06-4.6,4.6v20.26c0,2.54,2.06,4.6,4.6,4.6h20.26c2.53,0,4.58-2.05,4.6-4.57,0-1.43,1.14-2.61,2.57-2.61h5.91c1.42,0,2.57,1.16,2.57,2.58,0,8.63-7.03,15.66-15.66,15.66H15.66c-8.65,0-15.66-7.01-15.66-15.66v-20.26c0-8.65,7.01-15.66,15.66-15.66h40.35c1.25,0,1.88,1.51.99,2.4l-17.87,17.87h27.18c2.54,0,4.6-2.06,4.6-4.6V15.66c0-2.54-2.06-4.6-4.6-4.6h-30.4c-2.54,0-4.6,2.06-4.6,4.6v10.13c0,1.42-1.15,2.57-2.57,2.57h-5.91c-1.42,0-2.57-1.15-2.57-2.57v-10.13c0-8.65,7.01-15.66,15.66-15.66h30.39c8.65,0,15.66,7.01,15.66,15.66h.01Z"/>
      <path class="cls-4" d="m288.97,30.99l-9.58,2.18-9.57-2.18s-1-.05-.95-1.6c.05-1.55,0-12.24,0-12.24,0,0,.05-.1.14-.24.31-.45,1.07-1.26,1.96.24v11.84l8.42,2,8.43-2v-11.84c.88-1.5,1.65-.69,1.96-.24.09.14.14.24.14.24,0,0-.05,10.69,0,12.24.05,1.55-.95,1.6-.95,1.6"/>
      <path class="cls-1" d="m286.87,26.34c-.05,1.4-1.2,1.5-1.2,1.5l-6.28,1.6v-13.15l5.03-1.76c2.6-1.38,2.45,1.18,2.45,1.18,0,0,.05,9.24,0,10.64"/>
      <path class="cls-2" d="m279.39,16.28v13.15l-6.28-1.6s-1.15-.1-1.2-1.5c-.05-1.4,0-10.64,0-10.64,0,0-.15-2.56,2.45-1.18l5.03,1.76h0Z"/>
      <path class="cls-4" d="m181.75,57.14l-.16,5.76c-.05,1.96-.06,4.92,0,8.91.05,3.98.04,6.95,0,8.91-.03.94-.44,1.4-1.24,1.38-1.08-.03-2.72-.09-4.92-.19-2.2-.1-3.84-.16-4.92-.19-.8-.02-1.19-.47-1.17-1.34.08-2.83.24-7.09.49-12.77.25-5.69.41-9.96.49-12.82.24-8.62-.37-15.57-1.83-20.86-.06-.28-.09-.49-.09-.63,0-.42.25-.71.71-.87,1.3-.1,3.12-.26,5.46-.48,3.79-.59,5.55-.89,5.27-.9.56.02.9,1.06,1.01,3.12.12,2.06,1.06,18.23.93,22.98"/>
      <path class="cls-4" d="m240.84,74.21c.02.77-.02,1.82-.13,3.15-.14,1.64-.22,2.71-.24,3.2-.02.63-.06,1.01-.13,1.16-.13.25-.46.5-.98.76-2.83,1.43-7.32,2.22-13.46,2.37-8.17.2-12.34-3.4-12.53-10.8-.07-2.97-.11-7.43-.12-13.38,0-5.96-.04-10.42-.12-13.38-.03-1.43-.77-2.18-2.2-2.25-1.29.03-2.57.05-3.83.04-.74-.16-1.14-1.58-1.2-4.27-.02-1.01.02-2.08.13-3.2.08-.84.63-1.36,1.64-1.56.87-.02,1.73-.06,2.56-.11,1.6-.11,2.39-.84,2.36-2.21-.03-1.4-.13-3.52-.29-6.39-.16-2.86-.25-5.01-.29-6.44-.06-2.55.4-3.83,1.37-3.86.31,0,3.61.45,9.89,1.38.81.09,1.22.46,1.23,1.12.04,1.54-.02,3.84-.17,6.92s-.21,5.38-.17,6.92c.02,1.01.51,1.51,1.45,1.48l12.57-.31c.6,0,.9.19.91.61,0,.42-.04,1.09-.13,2.02-.1.93-.14,1.62-.13,2.07,0,.52.05,1.33.11,2.41.06,1.08.1,1.88.11,2.41.02.66-.47,1.01-1.44,1.03-1.4.03-3.51,0-6.34-.13-2.83-.12-4.95-.17-6.34-.13-.28,0-.47,1.01-.56,3-.12,2.48-.12,5.96,0,10.43l.19,7.8c.07,3,.4,5.09.99,6.26.88,1.8,2.63,2.66,5.25,2.6,1.08-.03,2.67-.3,4.75-.82s3.63-.8,4.64-.82c.42,0,.64.3.65.93"/>
      <path class="cls-4" d="m259.57,10.98l-.02.68c-.23,13.01-.14,24.18.25,33.49.17,4.15.5,10.37.99,18.65.48,8.28.81,14.48.99,18.6.03.8-.23,1.22-.79,1.24l-10,.42c-.63.03-.96-.36-.99-1.16-.17-4.12-.4-10.32-.67-18.61-.28-8.29-.5-14.51-.68-18.66-.16-3.77-.58-9.42-1.26-16.96-.68-7.54-1.1-13.17-1.26-16.91-.03-.7.32-1.06,1.06-1.09.63-.03,1.57-.01,2.83.04s2.2.07,2.83.04c.66-.03,1.64-.12,2.92-.28,1.29-.16,2.24-.25,2.87-.28s.94.24.92.8"/>
      <path class="cls-4" d="m286.45,36.19c.05,2.69-.05,6.75-.28,12.19-.24,5.44-.33,9.51-.28,12.24.05,2.55.17,6.36.36,11.44.19,5.08.31,8.87.36,11.39.01.73-.3,1.1-.92,1.12l-10.21.18c-.73.01-1.11-.7-1.14-2.13-.04-2.41-.05-6.03,0-10.87.04-4.84.03-8.48,0-10.92-.05-2.72-.32-6.8-.82-12.24s-.77-9.52-.82-12.25c-.01-.59-.95-1.72-.21-1.73.63,0,2.9.88,4.21,1.03,1.31.15,2.3.22,2.97.21.66,0,1.65-.12,2.96-.31,1.31-.2,2.29-.3,2.95-.31.59,0,.9.32.91.98"/>
      <path class="cls-4" d="m328.6,74.24c.01.77-.04,1.82-.16,3.15-.15,1.64-.24,2.71-.26,3.2-.02.63-.07,1.01-.14,1.15-.14.25-.46.5-.98.75-2.84,1.41-7.34,2.16-13.48,2.26-8.17.13-12.32-3.5-12.44-10.91-.05-2.97-.05-7.43,0-13.39.04-5.95.04-10.42,0-13.39-.02-1.43-.75-2.19-2.18-2.27-1.29.02-2.57.02-3.83,0-.74-.16-1.13-1.59-1.17-4.28-.02-1.01.04-2.08.16-3.2.09-.84.64-1.35,1.65-1.55.87,0,1.73-.04,2.57-.09,1.6-.09,2.4-.82,2.38-2.19-.02-1.4-.1-3.53-.23-6.39-.13-2.86-.21-5.01-.23-6.44-.04-2.55.43-3.83,1.4-3.85.31,0,3.61.48,9.87,1.47.8.09,1.21.47,1.22,1.13.03,1.54-.05,3.84-.23,6.92-.18,3.08-.25,5.38-.23,6.92.02,1.01.5,1.51,1.44,1.5l12.57-.2c.59,0,.89.2.9.61,0,.42-.04,1.09-.15,2.02s-.16,1.62-.15,2.07c0,.52.04,1.33.09,2.41.05,1.08.08,1.88.09,2.41.01.66-.47,1-1.45,1.02-1.4.02-3.51-.04-6.34-.19-2.83-.15-4.95-.21-6.34-.19-.28,0-.47,1-.58,3-.14,2.48-.17,5.96-.1,10.43l.13,7.8c.05,3,.36,5.09.94,6.27.87,1.8,2.61,2.68,5.23,2.64,1.08-.02,2.67-.28,4.75-.78,2.09-.5,3.64-.77,4.65-.78.42,0,.63.3.64.93"/>
      <path class="cls-4" d="m150.71,39.3c-6.88-19.31-11.91-34.65-12.69-36.63-.52-1.31-.94-1.97-1.25-1.98-.59-.02-1.53.05-2.81.21-1.28.16-2.23.22-2.86.2-.66-.02-1.64-.14-2.93-.35-1.29-.21-2.26-.33-2.93-.35-.49,0-.96.64-1.42,1.95-1.81,4.45-5.09,12.26-6.13,14.47-5.88,13.31-7.87,21.48-9.03,24.27l-13.86,37.04c-.53,1.21-.79,2.45-.8,2.8-.01.49.33.74,1.03.76l11.78.34c.28,0,2.56-8.97,5.67-17.6,5.4-14.98,13.33-37.37,17.73-47.7,1.19,2.48,20.43,65.29,21.41,65.32.66.02,11.12.33,11.78.34.84.02,1.26-.17,1.28-.59,0-.24-4.25-15.37-13.97-42.52"/>
      <path class="cls-4" d="m83.25,53.84s53.7-11.75,79.6-8.37l.35,8.77s-59.04,6.53-79.96-.4"/>
      <path class="cls-4" d="m186.6,42.28s7.43-1.12,10.4-.06c0,0,8.52,11.41,12.31,8.53,0,0-16.5,11.27-23.78.91l1.08-9.38h0Z"/>
    </g>
  </g>
</svg>